<svg width="22" height="19" viewBox="0 0 22 19" fill="none" xmlns="http://www.w3.org/2000/svg">
<rect width="22" height="19" fill="#E5E5E5"/>
<g id="Real-Estate Landing Page v2" clip-path="url(#clip0_0_1)">
<rect width="1440" height="4324" transform="translate(-664 -2367)" fill="white"/>
<g id="Feature 01">
<g id="Feature 01_2">
<rect id="bg" x="-664" y="-574" width="1440" height="727" fill="#F5FAFE"/>
<g id="cards">
<g id="card 02">
<g id="Rectangle 65" filter="url(#filter0_d_0_1)">
<rect x="-119" y="-314" width="350" height="357" rx="12" fill="white"/>
</g>
<g id="beds and both]">
<g id="both">
<g id="Group 458">
<path id="Rectangle 75 (Stroke)" fill-rule="evenodd" clip-rule="evenodd" d="M2.57898 9.17481L3.38907 15.6909C3.42489 15.979 3.66972 16.1953 3.96003 16.1953H18.6509C18.9384 16.1953 19.1817 15.9831 19.2209 15.6983L20.1187 9.17481H2.57898ZM2.27635 7.33252C1.32944 7.33252 0.596612 8.1621 0.713433 9.10178L1.56086 15.9182C1.71136 17.1287 2.74014 18.0375 3.96003 18.0375H18.6509C19.8588 18.0375 20.8813 17.1461 21.046 15.9495L21.9856 9.1222C22.1158 8.17593 21.3805 7.33252 20.4253 7.33252H2.27635Z" fill="#0C8BFF"/>
<path id="Vector 14 (Stroke)" fill-rule="evenodd" clip-rule="evenodd" d="M10.4636 3.31054C9.77802 3.69376 9.4873 4.16099 9.44971 4.50633L9.32711 5.63269L8.24949 5.28277C7.29285 4.97214 6.67799 4.98954 6.291 5.1059C5.92507 5.21593 5.66406 5.44364 5.46061 5.78457C5.00759 6.54374 4.92786 7.70943 4.92786 8.65496L3.08557 8.65496C3.08557 7.73785 3.13515 6.08636 3.87859 4.84052C4.27338 4.17894 4.8774 3.60719 5.76051 3.34164C6.39802 3.14995 7.12093 3.13595 7.93059 3.29633C8.28448 2.6228 8.88858 2.08037 9.56472 1.70242C10.5737 1.13842 11.8758 0.853722 13.2351 0.994694C16.0318 1.28476 18.9285 3.34299 20.257 8.10523L18.4825 8.60027C17.3207 4.43585 14.9622 3.02599 13.045 2.82715C12.0473 2.72367 11.1277 2.93932 10.4636 3.31054Z" fill="#0C8BFF"/>
</g>
</g>
</g>
</g>
</g>
</g>
</g>
</g>
<defs>
<filter id="filter0_d_0_1" x="-153" y="-314" width="418" height="456" filterUnits="userSpaceOnUse" color-interpolation-filters="sRGB">
<feFlood flood-opacity="0" result="BackgroundImageFix"/>
<feColorMatrix in="SourceAlpha" type="matrix" values="0 0 0 0 0 0 0 0 0 0 0 0 0 0 0 0 0 0 127 0" result="hardAlpha"/>
<feMorphology radius="46" operator="erode" in="SourceAlpha" result="effect1_dropShadow_0_1"/>
<feOffset dy="65"/>
<feGaussianBlur stdDeviation="40"/>
<feColorMatrix type="matrix" values="0 0 0 0 0.885625 0 0 0 0 0.935278 0 0 0 0 0.975 0 0 0 0.6 0"/>
<feBlend mode="normal" in2="BackgroundImageFix" result="effect1_dropShadow_0_1"/>
<feBlend mode="normal" in="SourceGraphic" in2="effect1_dropShadow_0_1" result="shape"/>
</filter>
<clipPath id="clip0_0_1">
<rect width="1440" height="4324" fill="white" transform="translate(-664 -2367)"/>
</clipPath>
</defs>
</svg>
